<?xml version="1.0" standalone="no"?><!DOCTYPE svg PUBLIC "-//W3C//DTD SVG 1.1//EN" "http://www.w3.org/Graphics/SVG/1.1/DTD/svg11.dtd"><svg t="1765334652418" class="icon" viewBox="0 0 1024 1024" version="1.1" xmlns="http://www.w3.org/2000/svg" p-id="1737" xmlns:xlink="http://www.w3.org/1999/xlink" width="200" height="200"><path d="M358.543987 721.034905c-7.004533 3.074541-11.256377 10.968404-15.12708 17.227593-43.882084 70.943127-60.203408 156.683011-66.615054 238.221869-8.427461-0.364202-17.032787 0.575947-25.477188-0.076228-8.808602-0.686055-32.405492-7.461902-39.240629-6.741969 3.98928-47.320827 11.654458-93.853962 21.216874-140.556493 2.625641-12.823292 11.459653-32.617237 8.90177-44.525789-55.553482-75.881026-109.53158-152.600562-151.186104-237.230902-1.262002-2.557883-0.923209-5.522316-1.549976-6.826667 49.895649 3.286286 97.479041-16.49072 132.832027-51.089892 20.49694 60.99957 39.291447 122.676725 65.192126 181.736708 3.946931 9.901208 13.678743 10.214591 19.802415 14.25469 16.617767 10.976873 34.751629 25.849859 51.242349 35.60708z" fill="#F7C27D" p-id="1738"></path><path d="M746.817006 1000.318412c10.180711-32.261505-6.648801-87.510074-32.354673-108.989512-5.056476-4.217965-6.936774-8.630736-15.330356-6.818197 0.321853-0.110108 0.745343-2.108983 2.540943-2.67646 14.373267-4.548288 31.101141-4.641456 43.61105-14.186931l1.533036-30.830108-13.780381 1.549975c-4.497469 3.09995-2.456245 8.969529-3.675897 13.348421-2.176741 7.775285-11.730687 4.565227-17.625674 6.21684-8.503689 2.380017-26.27335 6.733499-33.032258 9.537006-0.601356-9.426898 0.948619-19.57373-0.076229-28.873582-0.559007-5.081886-6.606452-33.311762-8.283474-35.996691-3.447213-5.496907-26.518974-3.218528-34.201091-3.260877-5.590074-0.033879-15.914773 2.498594-18.743689-3.396394 31.084202 1.084136 62.456377-0.728404 93.591398-0.067758l67.733068-13.314541c51.394806 47.456344 97.843242 142.267395 29.254723 195.44933-20.276725 15.719967-37.140116 18.599702-61.160496 22.284069z" fill="#F7C27F" p-id="1739"></path><path d="M222.307097 489.436427c-35.352986 34.599173-82.927907 54.367709-132.832027 51.089892-18.557353-38.435997-42.103424-79.446816-37.605955-124.455384 2.888205-28.873581 30.914806-59.009165 59.805327-62.81211 73.932969-9.731811 93.117089 84.028983 110.632655 136.177602zM105.186567 377.440132c-9.384549 2.761158-10.468685 16.304384-8.478279 24.723375 12.188056 22.173962 39.672589 8.817072 33.227064-12.814822-2.617171-8.791663-15.694557-14.576543-24.748785-11.908553z m65.530919 10.316229c-1.592324-1.600794-11.781505-4.353482-14.813698-4.124798-15.169429 1.143424-14.822167 23.690058-5.302101 32.744285l11.739157 1.185773 10.67196-9.757221c3.498031-4.02316 0.516658-17.227593-2.295318-20.048039z m-73.9245 41.595235c0-8.994938-7.292506-16.287444-16.287444-16.287444s-16.287444 7.292506-16.287444 16.287444 7.292506 16.287444 16.287444 16.287445 16.287444-7.292506 16.287444-16.287445z m22.063854-4.201025c-3.193118 0.931679-10.002845 8.673085-11.917022 11.925492-9.418428 16.04182-17.430868 46.067295 8.681555 48.362614 4.760033 0.415021 40.417932-14.407146 45.305012-18.218561 30.576013-23.859454-17.625674-49.184185-42.069545-42.069545z" fill="#F7EEDC" p-id="1740"></path><path d="M699.131977 884.519173c8.393581-1.821009 10.273879 2.591762 15.330356 6.818197 25.714342 21.470968 42.535385 76.728007 32.354673 108.989512-0.296443 0.042349-0.855451 3.083011-4.91249 3.455682-30.440496 2.845856-85.833052-2.269909-95.72579-37.351861-10.451745-37.063888 9.172804-66.411778 42.713251-80.344615 4.167146-1.727841 8.00397-0.813102 10.24847-1.558445z" fill="#F9F0DE" p-id="1741"></path><path d="M118.85684 425.150571c24.452341-7.11464 72.645558 18.218561 42.069545 42.069545-4.87861 3.811414-40.544979 18.633581-45.305012 18.218561-26.112423-2.295318-18.099983-32.320794-8.681555-48.362614 1.914177-3.252407 8.723904-11.002283 11.917022-11.925492z" fill="#573127" p-id="1742"></path><path d="M105.186567 377.440132c9.054227-2.66799 22.123143 3.11689 24.748785 11.908553 6.445525 21.631894-21.030538 34.988784-33.227064 12.814822-1.990405-8.418991-0.90627-21.962217 8.478279-24.723375z" fill="#57332A" p-id="1743"></path><path d="M170.717486 387.756361c2.811977 2.811977 5.80182 16.02488 2.295318 20.048039L162.340844 417.561621l-11.739157-1.185773c-9.520066-9.054227-9.867328-31.60086 5.302101-32.744285 3.032192-0.228685 13.221373 2.524003 14.813698 4.124798z" fill="#56342C" p-id="1744"></path><path d="M80.505542 429.351596m-16.287444 0a16.287444 16.287444 0 1 0 32.574888 0 16.287444 16.287444 0 1 0-32.574888 0Z" fill="#5A382E" p-id="1745"></path><path d="M212.084036 969.66617c-3.752126 0.398081-7.741406 5.369859-15.169429 3.269347-11.002283-3.11689-2.68493-22.301009-1.914177-28.873582 2.380017-20.217436 3.489562-40.739785 6.987593-61.126617 5.259752-30.652242 13.873548-61.041919 19.836295-91.558643-30.110174-43.61952-62.77823-85.511199-90.957287-130.46048C95.302299 604.185409 23.961092 482.237089 31.651679 416.29115c5.259752-45.118677 42.162713-79.141902 86.900248-83.554674 32.871332 2.185211 69.215285 17.320761 83.334458 48.97244 1.76172 3.955401 3.201588 2.252969 6.775848 2.151332 6.005095-19.336576 14.779818-37.868519 24.376113-55.680529 11.1378-20.674806 43.382366-60.220347 49.048668-76.973631 10.629611-31.456873 14.898395-70.172374 26.061605-103.365559C321.89512 106.973697 357.96804 20.844202 399.266832 3.955401c28.695715-11.739156 54.520165 4.768503 76.838114 22.207841 31.854955 24.901241 56.578329 57.179686 82.004698 88.289297 5.479967 1.134955 11.163209-0.389611 16.643177 0.389612 59.246319 8.46981 112.428255 17.989876 169.62488 38.131083 7.910802 2.786567 25.138395 12.569198 31.456873 13.051977 7.673648 0.584417 47.227659-21.022068 59.491944-25.739752 47.837486-18.404897 118.306303-45.144086 144.833747 15.313416 25.578825 58.280761 6.894425 160.469016-5.945807 222.349446-2.354607 11.324136-8.554508 23.859454-9.562415 34.700811-1.583854 16.956559 5.319041 34.912556 6.877486 51.301637 7.919272 83.563143 2.346137 167.930918-54.35924 235.003342-28.094359 33.227064-73.805922 62.837519-115.866997 73.162217-4.082448 3.54038 12.46756 16.990438 15.177899 20.581637 46.177403 60.940281 72.798015 145.316526 3.616609 200.861539-46.685591 37.478908-160.096344 48.52354-189.816907-14.661241-15.491282-32.93062-3.303226-73.983788 24.714905-95.946005 4.243375-3.328635 19.683838-13.80579 23.698528-15.474342 6.758908-2.803507 24.528569-7.156989 33.032258-9.537006 5.894988-1.651613 15.448933 1.558445 17.625674-6.216841 1.219653-4.378892-0.821572-10.24847 3.675898-13.34842l13.78038-1.549975-1.533036 30.830108c-12.509909 9.537006-29.237783 9.630174-43.61105 14.186931-1.7956 0.567477-2.21909 2.566352-2.540943 2.67646-2.2445 0.736873-6.081323-0.177866-10.24847 1.558445-33.531977 13.941307-53.156526 43.289198-42.71325 80.344615 9.892738 35.090422 65.285294 40.206187 95.72579 37.351861 4.057039-0.381141 4.616046-3.413333 4.912489-3.455682 24.02038-3.684367 40.883772-6.564103 61.160496-22.28407 68.58005-53.181935 22.140083-147.992986-29.254722-195.44933l-67.733069 13.314541c-31.135021-0.652175-62.515666 1.151894-93.591398 0.067759-81.623557-2.837386-187.86885-32.9645-258.845856-74.932407-16.499189-9.757221-34.633052-24.630207-51.242349-35.60708-6.123672-4.040099-15.855484-4.353482-19.802415-14.25469-25.900678-59.059983-44.695186-120.737138-65.192126-181.736708-17.524036-52.148619-36.708156-145.909413-110.632655-136.177602-28.890521 3.802945-56.917122 33.938528-59.805327 62.81211-4.497469 45.008569 19.048602 86.019388 37.605955 124.455384 0.626766 1.304351 0.296443 4.268784 1.549976 6.826667 41.646055 84.630339 95.632622 161.349876 151.186104 237.230902 2.557883 11.908553-6.276129 31.702498-8.90177 44.525789-9.570885 46.711001-17.227593 93.235666-21.216874 140.556493z m13.627924-534.724499c3.201588 10.341638 6.902895 20.420711 10.214591 30.652241 10.790538 33.320232 22.504285 66.233912 34.057105 98.774922 11.14627 31.389115 19.751596 80.412374 45.914839 102.239073 127.860248 106.643375 384.368437 150.364533 530.853796 64.11646 46.397618-27.323606 73.306203-65.852771 90.787891-115.265641 10.426336-29.457998 15.728437-54.435467 17.261472-86.79014 1.312821-27.831795-8.410521-67.148652-10.375517-95.497105-2.092043-30.118644 7.250157-47.973002 12.772473-75.643871 10.400926-52.148619 22.216311-123.862498 10.358578-175.680794-13.399239-58.577204-52.292605-45.542167-98.224384-31.397585-29.424119 9.062696-60.97416 23.300447-87.230571 38.961125l-5.801819-0.042349c-71.358147-33.963937-149.407444-51.826766-228.303723-54.570985-5.183524-1.499156-29.466468-38.012506-36.115268-45.626865-16.753284-19.192589-65.988288-68.012572-90.449099-69.87593-5.937337-0.4489-16.829512 5.081886-21.919867 8.723904-34.937965 24.994409-68.021042 113.207477-80.217569 154.785773-9.105045 31.016443-11.12086 61.135087-27.077981 88.721257-27.213499 47.024384-59.466534 90.931878-73.314674 144.681291 1.185773 6.530223 4.91249 12.560728 6.826667 18.735219z" fill="#502E25" p-id="1746"></path><path d="M937.548652 615.450256c-4.234905-15.364235-7.021472-29.483408-16.965029-42.645492-12.213466-16.168867-22.605922-19.760066-40.934591-25.477187-28.721125-8.961059-46.118114-7.156989-76.56708-3.337106-8.080199 1.016377-19.438213 5.861108-27.391365 6.665741-16.837982 1.710902-35.62402-1.067196-52.716096 0.076228-51.987692-13.78885-50.3022-37.716063-85.070769-66.496476-36.437122-30.160993-80.971381-30.448966-123.659222-14.508785-12.188056 4.548288-25.214624 14.568073-38.258131 16.236626-23.071762 2.947494-50.107395-1.109545-69.765823-13.568635-31.372175-19.887113-60.457502-50.488536-98.774922-57.89962-1.058726-0.203275-2.261439 0.135517-3.404863 0l-2.125922-3.032192c-2.65952-0.88086-5.412208-0.271034-8.088669-0.372671-29.83067-1.194243-47.007444 1.863358-68.11421 23.842514-1.914177-6.174491-5.640893-12.196526-6.826666-18.735219 13.839669-53.749413 46.101175-97.656907 73.314673-144.681291 15.965591-27.58617 17.981406-57.696344 27.077982-88.721257 12.196526-41.586766 45.279603-129.791365 80.217568-154.785773 5.090356-3.642018 15.982531-9.172804 21.919868-8.723904 24.460811 1.854888 73.695815 50.683342 90.449098 69.87593 6.648801 7.614359 30.931745 44.127709 36.115269 45.626866 78.896278 2.744218 156.945575 20.598577 228.303722 54.570984l5.80182 0.042349c26.26488-15.660678 57.806452-29.898428 87.23057-38.961125 45.940248-14.144582 84.825145-27.17962 98.224384 31.397585 11.857734 51.818296 0.042349 123.532175-10.358577 175.680794-5.513846 27.670868-14.864516 45.533697-12.772473 75.643871 1.964996 28.339983 11.696807 67.65684 10.375517 95.497105-1.533036 32.354673-6.835136 57.332142-17.261473 86.79014zM365.362184 199.929859c21.428619-10.358577 40.553449-24.892771 62.32086-34.743159 14.542663-6.581042 30.830108-10.273879 45.127146-16.177337 3.260877-1.3467 6.437055-1.524566 8.249595-5.446088 1.990405-7.284036-16.770223-35.446154-22.190902-42.26435-16.143457-20.285194-34.971844-37.572076-56.112489-12.128768-12.408271 14.932275-24.257535 43.373896-29.754442 62.202283-4.599107 15.728437-8.749313 32.125988-7.639768 48.54895z m530.269379-9.553945c-13.577105 2.346137-46.973565 21.38627-58.052076 30.499785-2.65105 2.176741-6.987593 3.362514-5.590074 7.961621 11.459653 13.035037 26.28182 24.452341 37.504317 37.445029 16.075699 18.608172 26.629082 40.96847 42.509976 59.65287 5.014127-3.413333 5.183524-8.410521 6.835136-13.585575 8.376642-26.26488 15.288007-69.867461 11.840794-97.03014-1.194243-9.418428-6.132142-18.142333-13.483937-23.978032-5.869578-2.955964-14.957684-2.100513-21.564136-0.957088zM483.51603 275.539851c-21.902928 3.760596-25.502597 22.123143-22.792258 41.891679 1.549975 11.315666 20.403772 29.38177 30.584483 34.124864 17.515567 8.156427 41.823921 9.757221 52.826203-8.605327 19.929462-33.244003-28.212936-72.975881-60.618428-67.411216z m238.408205 57.88268c-13.018098 2.193681-32.888271 15.516691-35.852705 28.856642-12.848701 57.764103 89.661406 52.436592 94.751762 6.199901 3.675897-33.37952-32.608768-39.486253-58.899057-35.048073z m-247.581009 81.073019c-21.242283-3.023722-61.965128-14.110703-80.175219-0.135517-11.756096 9.020347-2.278379 24.198246 10.299288 24.020381 3.701307-0.050819 8.02091-3.387924 13.534756-3.59967 11.14627-0.44043 26.823888-0.982498 37.529727 0.237155 19.15871 2.185211 61.685624 31.346766 55.629711-4.548288-4.827792-28.577138-58.365459-73.094458-86.256543-77.210786-4.870141-0.719934-10.22306-0.025409-15.12708 0.084699-2.727279 8.105608-3.99775 11.840794 0.355732 19.802415 23.57995 9.401489 47.354706 22.080794 64.209628 41.349611z m241.821538 54.511696l46.041886-10.155302c12.02713-1.905707 37.766882 6.809727 35.818826-12.061009-1.626203-15.753846-30.482845-12.941869-42.848768-12.001721-23.969562 1.829479-56.154839 11.823854-74.839239 27.332076-6.716559 5.573135-14.449495 12.518379-11.739156 22.089264 2.032754 7.190868 27.823325 7.046882 35.522382 8.749314 27.323606 6.055914 49.285823 17.930587 72.196658 33.531976 9.409959-1.041787 13.323011-4.946369 14.356328-14.364797-2.092043-14.000596-28.839702-25.096046-40.400993-31.262068l-34.107924-11.857733z" fill="#F8C27E" p-id="1747"></path><path d="M722.974491 550.74091c0.287974 0.076228 0.330323 2.845856 4.887081 3.481092 7.970091 1.109545 17.507097-0.8978 25.765161-0.067759 2.566352 2.320728-14.305509 25.011348-16.321324 29.644334-2.507064 5.751001-7.173929 24.189777-7.622828 30.118644-0.406551 5.34445 5.971216 26.366518 8.554508 32.261505 18.531944 42.196592 67.326518 51.852175 109.201257 47.752788 22.157022-2.168271 31.787196-11.781505 40.782134-30.73694 14.322448-30.186402 17.396989-60.965691 3.421803-92.083772-3.658958-8.156427-11.679868-14.009065-11.993251-23.766286 18.337138 5.717122 28.729595 9.308321 40.934591 25.477188 9.935087 13.162084 12.730124 27.281257 16.965029 42.645492-17.481687 49.41287-44.390273 87.950505-90.787891 115.265641-146.48536 86.248073-402.985079 42.526915-530.853797-64.11646-26.171712-21.8267-34.768569-70.849959-45.914838-102.239073 3.150769-8.495219 8.961059 0.8978 11.925492 3.404863 15.728437 13.280662 21.445558 19.099421 44.203937 16.948089 40.155368-3.794475 81.742134-37.580546 83.741009-79.895715 0.592887-12.603077-9.977436-21.631894-3.625078-32.413962 19.658428 12.45909 46.694061 16.516129 69.765823 13.568635 13.043507-1.668553 26.070074-11.688337 38.25813-16.236625 42.696311-15.940182 87.222101-15.652208 123.659223 14.508784 34.760099 28.780414 33.083077 52.707626 85.070769 66.496476z m-171.327312-70.858429c-8.656146 1.499156-15.719967 6.166022-21.191464 12.874111-7.504251 22.512754 8.01244 44.52579 27.848735 54.062796 14.356328 6.902895 27.950372 7.961621 43.145211 3.311696 21.225343-6.496344 39.325327-25.070637 24.359173-46.973565-12.9334-18.930025-52.5467-27.010223-74.161655-23.266568z m95.776609 107.727511c3.599669-5.666303 7.343325-20.9289-1.101075-23.241158-9.841919-2.68493-15.533631 11.391894-22.148553 15.296476-33.684433 19.861704-103.399438 3.023722-118.467229-34.743159-2.202151-5.530786-1.151894-15.355765-9.409958-17.955997-3.464152-1.084136-10.502564 5.903457-11.400364 8.859421-2.295318 7.512721 4.929429 23.783226 9.816509 30.321919 27.018693 36.149148 91.914376 53.148056 132.959074 34.057105 7.893863-3.675897 11.654458-10.028255 19.751596-12.577668z" fill="#FBF0DE" p-id="1748"></path><path d="M406.220546 472.403639c-6.343888 10.782068 4.217965 19.810885 3.625078 32.413962-1.998875 42.323639-43.577171 76.101241-83.741009 79.895716-22.758379 2.151332-28.4755-3.667428-44.203937-16.94809-2.964433-2.507064-8.774723-11.900083-11.925492-3.404863-11.552821-32.541009-23.266567-65.44622-34.057105-98.774921 7.309446 5.496907 7.377204 1.414458 10.900645-4.429711 12.340513-20.46306 29.8222-28.314574 51.301638-37.301042 5.657833-2.363077 11.1378-0.779222 9.316791-9.36761 38.317419 7.419553 67.402746 38.020976 98.774921 57.89962z m-92.939223-26.518974c-31.406055 4.488999-55.375616 31.575451-45.161025 64.150339 9.376079 29.898428 41.061638 44.144648 70.130025 32.329264 29.110736-11.840794 38.30048-52.402713 24.435401-79.209661-8.198776-15.847014-33.184715-19.5822-49.395931-17.269942z" fill="#FAD5B9" p-id="1749"></path><path d="M293.82617 411.099156l2.125923 3.032192c2.642581 1.007907 5.590074 0.084698 8.097138 0.372672 1.143424 0.135517 2.346137-0.203275 3.404863 0 1.821009 8.579917-3.658958 6.996063-9.31679 9.367609-21.479438 8.986468-38.961125 16.837982-51.301638 37.301043-3.523441 5.835699-3.599669 9.926617-10.900645 4.42971-3.311696-10.23153-7.013002-20.310604-10.214591-30.652241 21.106766-21.979156 38.28354-25.036758 68.11421-23.842515z" fill="#F9E8D1" p-id="1750"></path><path d="M879.649032 547.336046c0.313383 9.757221 8.334293 15.609859 11.993251 23.766287 13.975186 31.118081 10.900645 61.89737-3.421803 92.083771-8.994938 18.963904-18.625112 28.568668-40.782134 30.73694-41.874739 4.107858-90.669313-5.556195-109.201257-47.752788-2.583292-5.886518-8.961059-26.917055-8.554508-32.261505 0.4489-5.928867 5.124235-24.367643 7.622828-30.118643 2.024285-4.641456 18.896146-27.332076 16.321324-29.644335-8.249595-0.830041-17.79507 1.177304-25.765161 0.067759-4.556758-0.635236-4.599107-3.404864-4.887081-3.481092 17.083606-1.143424 35.869644 1.634673 52.716096-0.076228 7.953151-0.804632 19.311166-5.657833 27.391365-6.665741 30.448966-3.819884 47.845955-5.623954 76.56708 3.337106z m-65.785012 14.24622c-23.867924 4.361952-46.211282 30.796228-43.17062 55.511134 4.971778 40.434872 63.371117 57.374491 86.713912 25.511067 24.071199-32.862862-4.167146-88.213069-43.543292-81.022201z" fill="#FAD3B8" p-id="1751"></path><path d="M895.631563 190.375914c6.606452-1.143424 15.694557-1.998875 21.564136 0.957088 7.351795 5.844169 12.289694 14.559603 13.483937 23.978032 3.447213 27.16268-3.464152 70.77373-11.840794 97.030141-1.651613 5.175054-1.812539 10.172242-6.835136 13.585574-15.880893-18.6844-26.425806-41.044698-42.509976-59.65287-11.222498-12.992688-26.044665-24.409992-37.504317-37.445029-1.397519-4.590637 2.939024-5.78488 5.590074-7.961621 11.078511-9.113515 44.474971-28.145178 58.052076-30.499785z" fill="#FAC5B6" p-id="1752"></path><path d="M365.362184 199.929859c-1.109545-16.431431 3.040662-32.820513 7.639768-48.548949 5.496907-18.828387 17.34617-47.270008 29.754442-62.202283 21.140645-25.443309 39.969032-8.147957 56.112489 12.128768 5.420678 6.818197 24.189777 34.980314 22.190902 42.26435-1.812539 3.921522-4.988718 4.099388-8.249595 5.446088-14.305509 5.903457-30.592953 9.596294-45.127146 16.177337-21.767411 9.850389-40.892242 24.376112-62.32086 34.743159z" fill="#FAC6B8" p-id="1753"></path><path d="M716.164764 469.007246l34.107924 11.857733c11.56976 6.166022 38.30895 17.261472 40.400993 31.262068-1.033317 9.418428-4.946369 13.314541-14.356328 14.364797-22.910835-15.59292-44.873052-27.467593-72.196658-33.531976-7.707527-1.710902-33.489628-1.566915-35.522382-8.749314-2.710339-9.562415 5.022597-16.507659 11.739156-22.089264 18.69287-15.508222 50.878147-25.502597 74.839239-27.332076 12.374392-0.948619 41.222564-3.752126 42.848768 12.001721 1.948056 18.870736-23.791696 10.155302-35.818826 12.061009l-46.041886 10.155302z" fill="#563229" p-id="1754"></path><path d="M474.343226 414.49555c-16.854921-19.268817-40.629677-31.948122-64.209628-41.349611-4.353482-7.961621-3.091481-11.696807-0.355732-19.802415 4.91249-0.118577 10.25694-0.804632 15.12708-0.084699 27.891084 4.116328 81.428751 48.633648 86.256543 77.210786 6.064384 35.895054-36.471001 6.733499-55.629711 4.548288-10.714309-1.219653-26.391927-0.677585-37.529727-0.237155-5.505376 0.220215-9.824979 3.54885-13.534756 3.59967-12.577667 0.177866-22.055385-15.000033-10.299288-24.020381 18.210091-13.983656 58.932936-2.888205 80.175219 0.135517z" fill="#55332A" p-id="1755"></path><path d="M721.924235 333.422531c26.290289-4.43818 62.574955 1.677022 58.899057 35.048073-5.090356 46.236691-107.600463 51.564202-94.751762-6.199901 2.964433-13.33995 22.834607-26.654491 35.852705-28.856642z" fill="#F9F1DE" p-id="1756"></path><path d="M483.51603 275.539851c32.413962-5.564665 80.547891 34.167213 60.618428 67.411216-11.002283 18.362548-35.310637 16.761754-52.826203 8.605327-10.180711-4.743093-29.034508-22.817667-30.584483-34.124864-2.710339-19.768536 0.88933-38.122614 22.792258-41.891679z" fill="#F9EFDB" p-id="1757"></path><path d="M304.049231 414.50402c-2.498594-0.287974-5.454557 0.635236-8.097138-0.372672l-2.125923-3.032192c2.68493 0.110108 5.429148-0.508189 8.088669 0.372672l2.125922 3.032192z" fill="#FAD5B9" p-id="1758"></path><path d="M551.647179 479.882481c21.614955-3.743656 61.228255 4.336543 74.161655 23.266568 14.966154 21.902928-3.13383 40.477221-24.359173 46.973565-15.194839 4.649926-28.788883 3.599669-43.145211-3.311696-19.827825-9.537006-35.344516-31.541572-27.848735-54.062796 5.471497-6.708089 12.535318-11.374955 21.191464-12.87411z" fill="#533229" p-id="1759"></path><path d="M647.423788 587.609992c-8.097138 2.549413-11.857734 8.91024-19.751596 12.577667-41.044698 19.099421-105.94038 2.092043-132.959074-34.057105-4.88708-6.538693-12.111828-22.800728-9.816509-30.321919 0.8978-2.955964 7.944682-9.943557 11.400364-8.859421 8.258065 2.600232 7.207808 12.425211 9.409958 17.955997 15.067792 37.766882 84.782796 54.604864 118.467229 34.74316 6.623391-3.904582 12.306634-17.981406 22.148553-15.296477 8.4444 2.303788 4.692275 17.566385 1.101075 23.241158z" fill="#523027" p-id="1760"></path><path d="M313.281323 445.884665c16.219686-2.320728 41.197155 1.414458 49.395931 17.269942 13.865079 26.806948 4.675335 67.368867-24.435401 79.209661-29.068387 11.815385-60.753945-2.430835-70.130025-32.329264-10.214591-32.574888 13.763441-59.65287 45.161026-64.150339z" fill="#FABD9D" p-id="1761"></path><path d="M813.86402 561.582266c39.384615-7.199338 67.622961 48.150868 43.543292 81.022201-23.342796 31.871894-81.742134 14.932275-86.713912-25.511067-3.040662-24.714905 19.302696-51.149181 43.17062-55.511134z" fill="#FABD9C" p-id="1762"></path></svg>